<?xml version="1.0" encoding="UTF-8"?>
<svg id="_1" data-name="1" xmlns="http://www.w3.org/2000/svg" viewBox="0 0 787.45 434.42">
  <defs>
    <style>
      .cls-1 {
        fill: none;
        stroke: #000;
        stroke-linecap: round;
        stroke-linejoin: round;
        stroke-width: .71px;
      }
    </style>
  </defs>
  <g id="POLYLINE">
    <path class="cls-1" d="M568.98,250c.06-2.12,2.13-4.29,4.3-4.3,4.14.61,199.51-.98,203.48.46,6.04,3.26,6.18,3.21,9.51,9.51,0,0,.46,3.48.46,3.48v161.3s-.47,3.48-.47,3.48c-3.27,6.07-3.26,6.2-9.51,9.5-3.67,1.49-199.64-.13-203.48.43-.93.23-2.3-.94-3.03-1.26-.5-.68-1.3-2.18-1.26-3.04,0,0,0-179.55,0-179.55Z"/>
  </g>
  <g id="POLYLINE-2" data-name="POLYLINE">
    <path class="cls-1" d="M248.37,429.48l-.15,1.14-1.17,1.96-2,1.09c-.11.24-8.69-.2-9.17-.2-2.58-.12-9.75-1.08-12.41-1.45-7.49-1.03-123.45-31.21-134.12-34.02l-1.45-1.2-.8-1.7c-.19-28.06-.19-82.6,0-110.66l.8-1.7,1.45-1.2c11.09-2.91,126.31-32.89,134.12-34,2.64-.36,9.81-1.33,12.41-1.45.32.02,9.03-.44,9.17-.2l2,1.09,1.17,1.96c.45,45.26,0,135.25.14,180.53Z"/>
  </g>
  <g id="POLYLINE-3" data-name="POLYLINE">
    <path class="cls-1" d="M53.61,128.26c-1.81,8.73-8.57,16.61-16.9,19.78,0,0-27.61,7.07-27.61,7.07-1.49.68-4.66-.73-6.02-1.25-.8-1.36-3-3.8-2.7-5.52,0,0,0-108.12,0-108.12.15-4.03,4.41-7.38,8.39-6.51,3.84,1.11,30.24,7.07,32.8,9.56,7.54,4.77,12.54,13.85,12.59,22.77.06-10.88,7.24-21.34,17.44-25.17C99.72,35.13,218.3-.58,244.97.46c40.82-.1,219.5-.17,263.41.06,1.57.47,4.13,1.89,4.78,3.6,0,0,4.9,14.68,4.9,14.68l5.05-14.59c.85-1.74,3.12-3.22,4.95-3.69,30.44-.39,219.57.04,245.23-.12,2.66-.47,7.38,2.75,9.5,3.94,7.4,1.87,2.73,84.24,3.94,90.15-1.2,6.19,3.45,87.9-3.95,90.15-2.18,1.45-6.81,4.17-9.51,3.94-24.69-.2-215.78.25-245.23-.15-1.72-.54-4.19-1.89-4.95-3.69,0,0-5.05-14.59-5.05-14.59,0,0-4.91,14.67-4.91,14.67-.81,1.7-3,3.14-4.78,3.6-45.13.21-221.69.11-263.41.03-26.1,1.16-146.06-34.89-173.37-40.42-10.13-3.83-17.46-14.31-17.44-25.18l-.54,5.39Z"/>
  </g>
</svg>